<?xml version="1.0" encoding="UTF-8"?>
<svg width="33px" height="32px" viewBox="0 0 33 32" version="1.1" xmlns="http://www.w3.org/2000/svg" xmlns:xlink="http://www.w3.org/1999/xlink">
    <title>Group 93</title>
    <defs>
        <filter id="filter-1">
            <feColorMatrix in="SourceGraphic" type="matrix" values="0 0 0 0 1.000000 0 0 0 0 1.000000 0 0 0 0 1.000000 0 0 0 1.000000 0"></feColorMatrix>
        </filter>
        <polygon id="path-2" points="0.260207407 0.27771215 2.13451852 0.27771215 2.13451852 2.1696 0.260207407 2.1696"></polygon>
        <polygon id="path-4" points="0.260207407 0.14011215 2.13451852 0.14011215 2.13451852 2.032 0.260207407 2.032"></polygon>
    </defs>
    <g id="Page-1" stroke="none" stroke-width="1" fill="none" fill-rule="evenodd">
        <g id="mapa-de-ZEs" transform="translate(-16.000000, -12.000000)">
            <g filter="url(#filter-1)" id="Group-93">
                <g transform="translate(16.000000, 12.000000)">
                    <path d="M15.4803852,9.47893832 C15.4803852,10.4494056 14.7011259,11.2359477 13.7399407,11.2359477 C12.7784593,11.2359477 11.9992,10.4494056 11.9992,9.47893832 C11.9992,8.50877009 12.7784593,7.72222804 13.7399407,7.72222804 C14.7011259,7.72222804 15.4803852,8.50877009 15.4803852,9.47893832" id="Fill-1" fill="#000000"></path>
                    <path d="M15.0787556,5.17170841 C15.0787556,5.91787664 14.4793481,6.52318505 13.7397926,6.52318505 C13.000237,6.52318505 12.4008296,5.91787664 12.4008296,5.17170841 C12.4008296,4.42524112 13.000237,3.81993271 13.7397926,3.81993271 C14.4793481,3.81993271 15.0787556,4.42524112 15.0787556,5.17170841" id="Fill-3" fill="#000000"></path>
                    <path d="M14.6771259,0.945943925 C14.6771259,1.46841121 14.2572741,1.89218692 13.7399407,1.89218692 C13.2223111,1.89218692 12.8024593,1.46841121 12.8024593,0.945943925 C12.8024593,0.423775701 13.2223111,0 13.7399407,0 C14.2572741,0 14.6771259,0.423775701 14.6771259,0.945943925" id="Fill-5" fill="#000000"></path>
                    <path d="M11.9993185,22.4185121 C11.9993185,21.4483439 12.7785778,20.6615028 13.7400593,20.6615028 C14.7012444,20.6615028 15.4805037,21.4483439 15.4805037,22.4185121 C15.4805037,23.3886804 14.7012444,24.1752224 13.7400593,24.1752224 C12.7785778,24.1752224 11.9993185,23.3886804 11.9993185,22.4185121" id="Fill-7" fill="#000000"></path>
                    <path d="M12.4009481,26.7257421 C12.4009481,25.9795738 13.0003556,25.3742654 13.7399111,25.3742654 C14.4794667,25.3742654 15.0788741,25.9795738 15.0788741,26.7257421 C15.0788741,27.4722093 14.4794667,28.0775178 13.7399111,28.0775178 C13.0003556,28.0775178 12.4009481,27.4722093 12.4009481,26.7257421" id="Fill-9" fill="#000000"></path>
                    <path d="M12.8025778,30.8945645 C12.8025778,30.3720972 13.2224296,29.9486206 13.7400593,29.9486206 C14.2573926,29.9486206 14.6772444,30.3720972 14.6772444,30.8945645 C14.6772444,31.4170318 14.2573926,31.8405084 13.7400593,31.8405084 C13.2224296,31.8405084 12.8025778,31.4170318 12.8025778,30.8945645" id="Fill-11" fill="#000000"></path>
                    <path d="M19.7649481,9.47893832 C19.7649481,10.4494056 18.9856889,11.2359477 18.0242074,11.2359477 C17.0630222,11.2359477 16.283763,10.4494056 16.283763,9.47893832 C16.283763,8.50877009 17.0630222,7.72222804 18.0242074,7.72222804 C18.9856889,7.72222804 19.7649481,8.50877009 19.7649481,9.47893832" id="Fill-13" fill="#000000"></path>
                    <path d="M19.3633185,5.17170841 C19.3633185,5.91787664 18.7639111,6.52318505 18.0243556,6.52318505 C17.2848,6.52318505 16.6853926,5.91787664 16.6853926,5.17170841 C16.6853926,4.42524112 17.2848,3.81993271 18.0243556,3.81993271 C18.7639111,3.81993271 19.3633185,4.42524112 19.3633185,5.17170841" id="Fill-15" fill="#000000"></path>
                    <path d="M18.9615704,0.945943925 C18.9615704,1.46841121 18.5420148,1.89218692 18.0243852,1.89218692 C17.5067556,1.89218692 17.0872,1.46841121 17.0872,0.945943925 C17.0872,0.423775701 17.5067556,0 18.0243852,0 C18.5420148,0 18.9615704,0.423775701 18.9615704,0.945943925" id="Fill-17" fill="#000000"></path>
                    <path d="M16.283763,22.4185121 C16.283763,21.4483439 17.0630222,20.6615028 18.0245037,20.6615028 C18.9856889,20.6615028 19.7649481,21.4483439 19.7649481,22.4185121 C19.7649481,23.3886804 18.9856889,24.1752224 18.0245037,24.1752224 C17.0630222,24.1752224 16.283763,23.3886804 16.283763,22.4185121" id="Fill-19" fill="#000000"></path>
                    <path d="M16.6855111,26.7257421 C16.6855111,25.9795738 17.2849185,25.3742654 18.0244741,25.3742654 C18.7637333,25.3742654 19.363437,25.9795738 19.363437,26.7257421 C19.363437,27.4722093 18.7637333,28.0775178 18.0244741,28.0775178 C17.2849185,28.0775178 16.6855111,27.4722093 16.6855111,26.7257421" id="Fill-21" fill="#000000"></path>
                    <path d="M17.0871407,30.8945645 C17.0871407,30.3720972 17.5066963,29.9486206 18.0243259,29.9486206 C18.5419556,29.9486206 18.9615111,30.3720972 18.9615111,30.8945645 C18.9615111,31.4170318 18.5419556,31.8405084 18.0243259,31.8405084 C17.5066963,31.8405084 17.0871407,31.4170318 17.0871407,30.8945645" id="Fill-23" fill="#000000"></path>
                    <path d="M5.20477037,16.7596262 C5.94432593,16.7596262 6.54373333,17.3646355 6.54373333,18.1111028 C6.54373333,18.8575701 5.94432593,19.4622804 5.20477037,19.4622804 C4.46521481,19.4622804 3.86580741,18.8575701 3.86580741,18.1111028 C3.86580741,17.3646355 4.46521481,16.7596262 5.20477037,16.7596262" id="Fill-25" fill="#000000"></path>
                    <path d="M0.937274074,17.1649794 C1.4549037,17.1649794 1.87445926,17.5884561 1.87445926,18.1109234 C1.87445926,18.6333907 1.4549037,19.0568673 0.937274074,19.0568673 C0.419644444,19.0568673 8.88888889e-05,18.6333907 8.88888889e-05,18.1109234 C8.88888889e-05,17.5884561 0.419644444,17.1649794 0.937274074,17.1649794" id="Fill-27" fill="#000000"></path>
                    <g id="Group-31" transform="translate(29.629630, 16.887327)">
                        <mask id="mask-3" fill="white">
                            <use xlink:href="#path-2"></use>
                        </mask>
                        <g id="Clip-30"></g>
                        <path d="M1.19739259,2.1696 C0.679762963,2.1696 0.260207407,1.74612336 0.260207407,1.22365607 C0.260207407,0.701188785 0.679762963,0.27771215 1.19739259,0.27771215 C1.71502222,0.27771215 2.13457778,0.701188785 2.13457778,1.22365607 C2.13457778,1.74612336 1.71502222,2.1696 1.19739259,2.1696" id="Fill-29" fill="#000000" mask="url(#mask-3)"></path>
                    </g>
                    <path d="M5.20477037,12.4351402 C5.94432593,12.4351402 6.54373333,13.0398505 6.54373333,13.7866168 C6.54373333,14.532785 5.94432593,15.1377944 5.20477037,15.1377944 C4.46521481,15.1377944 3.86580741,14.532785 3.86580741,13.7866168 C3.86580741,13.0398505 4.46521481,12.4351402 5.20477037,12.4351402" id="Fill-32" fill="#000000"></path>
                    <path d="M0.937274074,12.8405234 C1.4549037,12.8405234 1.87445926,13.264 1.87445926,13.7864673 C1.87445926,14.3089346 1.4549037,14.7324112 0.937274074,14.7324112 C0.419644444,14.7324112 8.88888889e-05,14.3089346 8.88888889e-05,13.7864673 C8.88888889e-05,13.264 0.419644444,12.8405234 0.937274074,12.8405234" id="Fill-34" fill="#000000"></path>
                    <path d="M13.7399111,15.9488598 C12.5568,15.9488598 11.5976889,16.9166355 11.5976889,18.1108037 C11.5976889,19.305271 12.5568,20.2733458 13.7399111,20.2733458 C14.9230222,20.2733458 15.8821333,19.305271 15.8821333,18.1108037 C15.8821333,16.9166355 14.9230222,15.9488598 13.7399111,15.9488598" id="Fill-36" fill="#000000"></path>
                    <path d="M18.0243556,15.9488598 C16.8412444,15.9488598 15.8821333,16.9166355 15.8821333,18.1108037 C15.8821333,19.305271 16.8412444,20.2733458 18.0243556,20.2733458 C19.2074667,20.2733458 20.1665778,19.305271 20.1665778,18.1108037 C20.1665778,16.9166355 19.2074667,15.9488598 18.0243556,15.9488598" id="Fill-38" fill="#000000"></path>
                    <path d="M15.8821333,13.7864972 C15.8821333,12.592329 14.9230222,11.6242542 13.7399111,11.6242542 C12.5568,11.6242542 11.5976889,12.592329 11.5976889,13.7864972 C11.5976889,14.9806654 12.5568,15.9487402 13.7399111,15.9487402 C14.9230222,15.9487402 15.8821333,14.9806654 15.8821333,13.7864972" id="Fill-40" fill="#000000"></path>
                    <path d="M18.0243556,15.9488598 C19.2074667,15.9488598 20.1665778,14.980785 20.1665778,13.7866168 C20.1665778,12.5921495 19.2074667,11.6240748 18.0243556,11.6240748 C16.8412444,11.6240748 15.8821333,12.5921495 15.8821333,13.7866168 C15.8821333,14.980785 16.8412444,15.9488598 18.0243556,15.9488598" id="Fill-42" fill="#000000"></path>
                    <g id="Group-46" transform="translate(29.629630, 12.700411)">
                        <mask id="mask-5" fill="white">
                            <use xlink:href="#path-4"></use>
                        </mask>
                        <g id="Clip-45"></g>
                        <path d="M1.19739259,0.14011215 C0.679762963,0.14011215 0.260207407,0.563588785 0.260207407,1.08605607 C0.260207407,1.60852336 0.679762963,2.032 1.19739259,2.032 C1.71502222,2.032 2.13457778,1.60852336 2.13457778,1.08605607 C2.13457778,0.563588785 1.71502222,0.14011215 1.19739259,0.14011215" id="Fill-44" fill="#000000" mask="url(#mask-5)"></path>
                    </g>
                    <path d="M0.960711111,14.7324411 C0.443081481,14.7324411 0.0232296296,14.3089645 0.0232296296,13.7864972 C0.0232296296,13.2640299 0.443081481,12.8405533 0.960711111,12.8405533 C1.47834074,12.8405533 1.8978963,13.2640299 1.8978963,13.7864972 C1.8978963,14.3089645 1.47834074,14.7324411 0.960711111,14.7324411" id="Fill-47" fill="#000000"></path>
                    <path d="M0.937274074,17.1649794 C1.4549037,17.1649794 1.87445926,17.5884561 1.87445926,18.1109234 C1.87445926,18.6333907 1.4549037,19.0568673 0.937274074,19.0568673 C0.419644444,19.0568673 8.88888889e-05,18.6333907 8.88888889e-05,18.1109234 C8.88888889e-05,17.5884561 0.419644444,17.1649794 0.937274074,17.1649794" id="Fill-49" fill="#000000"></path>
                    <path d="M30.8035852,17.1649794 C31.3212148,17.1649794 31.7407704,17.5884561 31.7407704,18.1109234 C31.7407704,18.6333907 31.3212148,19.0568673 30.8035852,19.0568673 C30.2859556,19.0568673 29.8664,18.6333907 29.8664,18.1109234 C29.8664,17.5884561 30.2859556,17.1649794 30.8035852,17.1649794" id="Fill-51" fill="#000000"></path>
                    <path d="M26.5595259,16.7596262 L26.5589333,16.7596262 L26.558637,16.7596262 C25.8187852,16.7596262 25.2196741,17.3646355 25.2196741,18.1111028 C25.2196741,18.8575701 25.8187852,19.4622804 26.558637,19.4622804 L26.5589333,19.4622804 L26.5595259,19.4622804 C27.2990815,19.4622804 27.8984889,18.8575701 27.8984889,18.1111028 C27.8984889,17.3646355 27.2990815,16.7596262 26.5595259,16.7596262" id="Fill-53" fill="#000000"></path>
                    <path d="M26.5590815,21.2353794 C27.1970074,21.2353794 27.7140444,21.7572486 27.7140444,22.4008374 C27.7140444,23.0450243 27.1970074,23.5668935 26.5590815,23.5668935 C25.9211556,23.5668935 25.4041185,23.0450243 25.4041185,22.4008374 C25.4041185,21.7572486 25.9211556,21.2353794 26.5590815,21.2353794" id="Fill-55" fill="#000000"></path>
                    <path d="M5.20477037,16.7596262 C5.94432593,16.7596262 6.54373333,17.3646355 6.54373333,18.1111028 C6.54373333,18.8575701 5.94432593,19.4622804 5.20477037,19.4622804 C4.46521481,19.4622804 3.86580741,18.8575701 3.86580741,18.1111028 C3.86580741,17.3646355 4.46521481,16.7596262 5.20477037,16.7596262" id="Fill-57" fill="#000000"></path>
                    <path d="M5.20548148,21.2353794 C5.84340741,21.2353794 6.36044444,21.7572486 6.36044444,22.4008374 C6.36044444,23.0450243 5.84340741,23.5668935 5.20548148,23.5668935 C4.56755556,23.5668935 4.05051852,23.0450243 4.05051852,22.4008374 C4.05051852,21.7572486 4.56755556,21.2353794 5.20548148,21.2353794" id="Fill-59" fill="#000000"></path>
                    <path d="M5.20533333,15.0940112 C4.46577778,15.0940112 3.86637037,14.4890019 3.86637037,13.7425346 C3.86637037,12.9960673 4.46577778,12.3910579 5.20533333,12.3910579 C5.94488889,12.3910579 6.5442963,12.9960673 6.5442963,13.7425346 C6.5442963,14.4890019 5.94488889,15.0940112 5.20533333,15.0940112" id="Fill-61" fill="#000000"></path>
                    <path d="M5.20462222,10.5773757 C4.58921481,10.5773757 4.09025185,10.0734505 4.09025185,9.45229159 C4.09025185,8.83113271 4.58921481,8.32780561 5.20462222,8.32780561 C5.82002963,8.32780561 6.31899259,8.83113271 6.31899259,9.45229159 C6.31899259,10.0734505 5.82002963,10.5773757 5.20462222,10.5773757" id="Fill-63" fill="#000000"></path>
                    <path d="M9.47226667,12.0294879 C8.51108148,12.0294879 7.73152593,12.816329 7.73152593,13.7864972 C7.73152593,14.7566654 8.51108148,15.5432075 9.47226667,15.5432075 C10.4337481,15.5432075 11.2130074,14.7566654 11.2130074,13.7864972 C11.2130074,12.816329 10.4337481,12.0294879 9.47226667,12.0294879" id="Fill-65" fill="#000000"></path>
                    <path d="M9.47185185,8.24939065 C8.72488889,8.24939065 8.11985185,8.84303551 8.11985185,9.57514766 C8.11985185,10.3072598 8.72488889,10.9006056 9.47185185,10.9006056 C10.2188148,10.9006056 10.8238519,10.3072598 10.8238519,9.57514766 C10.8238519,8.84303551 10.2188148,8.24939065 9.47185185,8.24939065" id="Fill-67" fill="#000000"></path>
                    <path d="M9.47125926,6.42637757 C8.87096296,6.42637757 8.38444444,5.94906916 8.38444444,5.36080748 C8.38444444,4.77224673 8.87096296,4.29523738 9.47125926,4.29523738 C10.0715556,4.29523738 10.5583704,4.77224673 10.5583704,5.36080748 C10.5583704,5.94906916 10.0715556,6.42637757 9.47125926,6.42637757" id="Fill-69" fill="#000000"></path>
                    <path d="M22.2918519,12.0294879 C21.3306667,12.0294879 20.5511111,12.816329 20.5511111,13.7864972 C20.5511111,14.7566654 21.3306667,15.5432075 22.2918519,15.5432075 C23.2533333,15.5432075 24.0325926,14.7566654 24.0325926,13.7864972 C24.0325926,12.816329 23.2533333,12.0294879 22.2918519,12.0294879" id="Fill-71" fill="#000000"></path>
                    <path d="M22.291437,10.9006654 C21.5444741,10.9006654 20.939437,10.3073196 20.939437,9.57490841 C20.939437,8.84309533 21.5444741,8.24974953 22.291437,8.24974953 C23.0384,8.24974953 23.643437,8.84309533 23.643437,9.57490841 C23.643437,10.3073196 23.0384,10.9006654 22.291437,10.9006654" id="Fill-73" fill="#000000"></path>
                    <path d="M22.2908444,6.42637757 C21.6905481,6.42637757 21.2040296,5.94906916 21.2040296,5.36080748 C21.2040296,4.77224673 21.6905481,4.29523738 22.2908444,4.29523738 C22.8911407,4.29523738 23.3779556,4.77224673 23.3779556,5.36080748 C23.3779556,5.94906916 22.8911407,6.42637757 22.2908444,6.42637757" id="Fill-75" fill="#000000"></path>
                    <path d="M22.4598222,16.3627065 C22.4044148,16.3570243 22.3487111,16.3543327 22.2918222,16.3543327 C22.2352296,16.3543327 22.1792296,16.3570243 22.1241185,16.3627065 C21.2414519,16.4479402 20.5513778,17.1979963 20.5513778,18.111043 C20.5513778,19.0812112 21.330637,19.8680523 22.2918222,19.8680523 C23.2533037,19.8680523 24.032563,19.0812112 24.032563,18.111043 C24.032563,17.1979963 23.3421926,16.4479402 22.4598222,16.3627065" id="Fill-77" fill="#000000"></path>
                    <path d="M22.2924444,20.8285308 C21.5454815,20.8285308 20.9404444,21.4218766 20.9404444,22.1542879 C20.9404444,22.8861009 21.5454815,23.4794467 22.2924444,23.4794467 C23.0394074,23.4794467 23.6444444,22.8861009 23.6444444,22.1542879 C23.6444444,21.4218766 23.0394074,20.8285308 22.2924444,20.8285308" id="Fill-79" fill="#000000"></path>
                    <path d="M22.2928593,25.3028486 C22.8931556,25.3028486 23.3799704,25.7798579 23.3799704,26.3684187 C23.3799704,26.9569794 22.8931556,27.4339888 22.2928593,27.4339888 C21.692563,27.4339888 21.2060444,26.9569794 21.2060444,26.3684187 C21.2060444,25.7798579 21.692563,25.3028486 22.2928593,25.3028486" id="Fill-81" fill="#000000"></path>
                    <path d="M9.64023704,16.3627065 C9.58482963,16.3570243 9.52912593,16.3543327 9.47223704,16.3543327 C9.41564444,16.3543327 9.35964444,16.3570243 9.30453333,16.3627065 C8.42186667,16.4479402 7.73179259,17.1979963 7.73179259,18.111043 C7.73179259,19.0812112 8.51105185,19.8680523 9.47223704,19.8680523 C10.4337185,19.8680523 11.2129778,19.0812112 11.2129778,18.111043 C11.2129778,17.1979963 10.5226074,16.4479402 9.64023704,16.3627065" id="Fill-83" fill="#000000"></path>
                    <path d="M9.47285926,20.8285308 C10.2198222,20.8285308 10.8248593,21.4218766 10.8248593,22.1542879 C10.8248593,22.8861009 10.2198222,23.4794467 9.47285926,23.4794467 C8.7258963,23.4794467 8.12085926,22.8861009 8.12085926,22.1542879 C8.12085926,21.4218766 8.7258963,20.8285308 9.47285926,20.8285308" id="Fill-85" fill="#000000"></path>
                    <path d="M9.47327407,25.3028486 C10.0735704,25.3028486 10.5603852,25.7798579 10.5603852,26.3684187 C10.5603852,26.9569794 10.0735704,27.4339888 9.47327407,27.4339888 C8.87297778,27.4339888 8.38645926,26.9569794 8.38645926,26.3684187 C8.38645926,25.7798579 8.87297778,25.3028486 9.47327407,25.3028486" id="Fill-87" fill="#000000"></path>
                    <path d="M27.8958815,13.7619439 C27.8958815,13.7553645 27.8979556,13.7490841 27.8979556,13.7428037 C27.8979556,12.9960374 27.2982519,12.391028 26.5589926,12.391028 C25.819437,12.391028 25.2200296,12.9960374 25.2200296,13.7428037 C25.2200296,13.7508785 25.2224,13.7586542 25.2224,13.767028 C25.2224,13.7736075 25.2206222,13.7798879 25.2206222,13.7864673 C25.2206222,14.5326355 25.8200296,15.1379439 26.5595852,15.1379439 C27.2988444,15.1379439 27.8982519,14.5326355 27.8982519,13.7864673 C27.8982519,13.7780935 27.8958815,13.7703178 27.8958815,13.7619439" id="Fill-89" fill="#000000"></path>
                    <path d="M26.5582222,10.6182579 C25.9202963,10.6182579 25.4032593,10.0963888 25.4032593,9.45250093 C25.4032593,8.80861308 25.9202963,8.28674393 26.5582222,8.28674393 C27.1961481,8.28674393 27.7131852,8.80861308 27.7131852,9.45250093 C27.7131852,10.0963888 27.1961481,10.6182579 26.5582222,10.6182579" id="Fill-91" fill="#000000"></path>
                </g>
            </g>
        </g>
    </g>
</svg>