<?xml version="1.0" encoding="UTF-8"?>
<svg width="24px" height="24px" viewBox="0 0 24 24" version="1.1" xmlns="http://www.w3.org/2000/svg" xmlns:xlink="http://www.w3.org/1999/xlink">
    <title>1FF94D38-CB1D-40F7-B4C5-7E67497557EE</title>
    <defs>
        <filter id="filter-1">
            <feColorMatrix in="SourceGraphic" type="matrix" values="0 0 0 0 0.105882 0 0 0 0 0.110850 0 0 0 0 0.113725 0 0 0 1.000000 0"></feColorMatrix>
        </filter>
    </defs>
    <g id="Style-Guide" stroke="none" stroke-width="1" fill="none" fill-rule="evenodd">
        <g id="007---Ãcones" transform="translate(-1110.000000, -573.000000)">
            <g id="Icons-/-dark-/-power-off" transform="translate(1110.000000, 573.000000)">
                <g filter="url(#filter-1)">
                    <g>
                        <path d="M16.8084705,4.65356747 C19.3270172,6.22499227 21.0000059,8.99284278 21.0000059,12.1428352 C21.0000059,17.0285378 16.9790349,20.9892426 12.018151,20.9999785 C7.06452524,21.0106711 3.00726983,17.0356807 3.00000587,12.1571209 C2.99638274,8.99998562 4.66936551,6.22499227 7.19154128,4.65356747 C7.40202502,4.52142493 7.68146032,4.58928191 7.80484733,4.80356711 L8.23307286,5.54999389 C8.34557279,5.74642199 8.28387928,5.99642139 8.0915407,6.11784967 C6.07742911,7.3892752 4.74194611,9.61069845 4.74194611,12.1428352 C4.74194611,16.0892544 7.98992786,19.2856753 12.0000059,19.2856753 C16.0100839,19.2856753 19.2580657,16.0892544 19.2580657,12.1428352 C19.2580657,9.61069845 17.9225827,7.3892752 15.9084711,6.12142109 C15.7161325,5.99999281 15.654439,5.74999341 15.7669389,5.55356531 L16.1951644,4.80713853 C16.3149224,4.58928191 16.5979867,4.52499635 16.8084705,4.65356747 Z M12.8709731,12.8571192 L12.8709731,3.4285704 C12.8709731,3.19285668 12.6750054,3 12.4354895,3 L11.5645223,3 C11.3250063,3 11.1290387,3.19285668 11.1290387,3.4285704 L11.1290387,12.8571192 C11.1290387,13.092833 11.3250063,13.2856896 11.5645223,13.2856896 L12.4354895,13.2856896 C12.6750054,13.2856896 12.8709731,13.092833 12.8709731,12.8571192 Z" id="Shape" fill="#000000" fill-rule="nonzero"></path>
                        <rect id="Rectangle" x="0" y="0" width="24" height="24"></rect>
                    </g>
                </g>
            </g>
        </g>
    </g>
</svg>