<?xml version="1.0" encoding="UTF-8"?>
<svg width="24px" height="24px" viewBox="0 0 24 24" version="1.1" xmlns="http://www.w3.org/2000/svg" xmlns:xlink="http://www.w3.org/1999/xlink">
    <title>icon/dark/question-circle</title>
    <defs>
        <filter id="filter-1">
            <feColorMatrix in="SourceGraphic" type="matrix" values="0 0 0 0 0.011765 0 0 0 0 0.250980 0 0 0 0 0.400000 0 0 0 1.000000 0"></feColorMatrix>
        </filter>
        <filter id="filter-2">
            <feColorMatrix in="SourceGraphic" type="matrix" values="0 0 0 0 0.105882 0 0 0 0 0.110850 0 0 0 0 0.113725 0 0 0 1.000000 0"></feColorMatrix>
        </filter>
    </defs>
    <g id="icon/dark/question-circle" stroke="none" stroke-width="1" fill="none" fill-rule="evenodd">
        <g filter="url(#filter-1)" id="Icons-/-azul-/-wrench-">
            <g>
                <rect id="Rectangle-Copy-57" x="0" y="0" width="24" height="24"></rect>
            </g>
        </g>
        <g filter="url(#filter-2)" id="question-circle">
            <g transform="translate(3.000000, 3.000000)">
                <path d="M9,0 C4.02978629,0 0,4.0312379 0,9 C0,13.9716653 4.02978629,18 9,18 C13.9702137,18 18,13.9716653 18,9 C18,4.0312379 13.9702137,0 9,0 Z M9,16.2580645 C4.98875806,16.2580645 1.74193548,13.0125847 1.74193548,9 C1.74193548,4.99010081 4.98890323,1.74193548 9,1.74193548 C13.009754,1.74193548 16.2580645,4.98886694 16.2580645,9 C16.2580645,13.0111694 13.0125847,16.2580645 9,16.2580645 Z" id="Shape" fill="#000000" fill-rule="nonzero"></path>
                <path d="M9.21026613,4.17419355 C7.72768786,4.17419355 6.72667515,4.73860142 5.89099119,5.96572375 C5.8833494,5.97694597 5.88235747,5.99035905 5.88698184,6.00141789 L5.89800143,6.01567233 L6.9077226,6.78130981 C6.92300834,6.7928989 6.9450647,6.79008103 6.95735846,6.77456611 C7.68616842,5.85473897 8.15136992,5.53539113 9.04699597,5.53539113 C9.96587832,5.53539113 10.8907702,6.13628715 10.8907702,6.97666935 C10.8907702,7.59619745 10.5860259,7.87901779 9.65850285,8.39900323 L9.25599319,8.62891465 L9.21509853,8.65380503 C8.5334091,9.0702005 8.19094707,9.48420633 8.14229426,10.1190857 L8.13622581,10.2825363 L8.13622581,10.5967742 C8.13622581,10.6098289 8.14329327,10.6212479 8.15380701,10.6274101 L8.17170968,10.6322581 L9.82825403,10.6322581 C9.84130874,10.6322581 9.85272778,10.6251906 9.85888995,10.6146769 L9.8637379,10.5967742 L9.8637379,10.3668024 C9.8637379,9.97834074 10.0856062,9.71051838 10.4987075,9.43936721 L11.3602445,8.92143176 C12.123893,8.42639038 12.4919194,7.88904567 12.4919194,6.99677419 C12.4919194,5.49411175 10.894474,4.17419355 9.21026613,4.17419355 Z" id="Path" fill="#034066"></path>
                <path d="M9,11.9403226 C8.38046632,11.9403226 7.87580645,12.4449824 7.87580645,13.0645161 C7.87580645,13.6840498 8.38046632,14.1887097 9,14.1887097 C9.61953368,14.1887097 10.1241935,13.6840498 10.1241935,13.0645161 C10.1241935,12.4449824 9.61953368,11.9403226 9,11.9403226 Z" id="Path" fill="#034066"></path>
            </g>
        </g>
    </g>
</svg>